<svg width="30" height="30" viewBox="0 0 30 30" fill="none" xmlns="http://www.w3.org/2000/svg">
<path d="M22.6078 11.2745H22.2549C22.098 7.50979 19.0784 4.49018 15.3529 4.2941V0.490179C15.3529 0.254885 15.1961 0.0980225 14.9608 0.0980225C14.7255 0.0980225 14.5686 0.254885 14.5686 0.490179V4.2941C10.8039 4.49018 7.82353 7.50979 7.66667 11.2745H7.39216C7.15686 11.2745 7 11.4314 7 11.6666V13.6666C7 13.9019 7.15686 14.0588 7.39216 14.0588H7.66667L9.11765 29.549C9.11765 29.7451 9.31372 29.9019 9.5098 29.9019H20.2941C20.4902 29.9019 20.6471 29.7451 20.6863 29.549L22.1373 14.0588H22.6078C22.8431 14.0588 23 13.9019 23 13.6666V11.6666C23 11.4314 22.8039 11.2745 22.6078 11.2745ZM15.3529 5.07841C18.6471 5.27449 21.3137 7.94116 21.4706 11.2745H15.3529V5.07841ZM14.5686 5.07841V11.2745H8.45098C8.60784 7.94116 11.2353 5.27449 14.5686 5.07841ZM7.78431 12.0588H14.5686V13.2745H7.78431V12.0588ZM8.45098 14.0588H14.5686V16.6078H8.68627L8.45098 14.0588ZM19.9412 29.1176H9.86274L8.76471 17.3529H14.5686V24.1372C14.5686 24.3725 14.7255 24.5294 14.9608 24.5294C15.1961 24.5294 15.3529 24.3725 15.3529 24.1372V17.3529H21.0392L19.9412 29.1176ZM21.1176 16.5686H15.3529V14.0588H21.3529L21.1176 16.5686ZM22.2157 13.2745H15.3529V12.0588H22.2157V13.2745Z" fill="#A4ACAD"/>
<path d="M11.8235 18.5294C10.8824 18.5294 10.098 19.3137 10.098 20.2548C10.098 21.196 10.8824 21.9803 11.8235 21.9803C12.7647 21.9803 13.549 21.196 13.549 20.2548C13.549 19.3137 12.7647 18.5294 11.8235 18.5294ZM11.8235 21.196C11.3137 21.196 10.8824 20.7647 10.8824 20.2548C10.8824 19.745 11.3137 19.3137 11.8235 19.3137C12.3333 19.3137 12.7647 19.745 12.7647 20.2548C12.7647 20.7647 12.3333 21.196 11.8235 21.196Z" fill="#A4ACAD"/>
<path d="M17.7451 24.2941C16.8039 24.2941 16.0196 25.0784 16.0196 26.0196C16.0196 26.9608 16.7647 27.7451 17.7451 27.7451C18.6863 27.7451 19.4706 26.9608 19.4706 26.0196C19.4706 25.0784 18.6863 24.2941 17.7451 24.2941ZM17.7451 26.9608C17.2353 26.9608 16.8039 26.5294 16.8039 26.0196C16.8039 25.5098 17.1961 25.0784 17.7451 25.0784C18.2549 25.0784 18.6863 25.5098 18.6863 26.0196C18.6863 26.5294 18.2549 26.9608 17.7451 26.9608Z" fill="#A4ACAD"/>
<path d="M17.9804 19.0784C17.1961 19.0784 16.5294 19.7451 16.5294 20.5294C16.5294 21.3137 17.1961 21.9804 17.9804 21.9804C18.7647 21.9804 19.4314 21.3137 19.4314 20.5294C19.4314 19.7451 18.7647 19.0784 17.9804 19.0784ZM17.9804 21.1961C17.6274 21.1961 17.3137 20.8824 17.3137 20.5294C17.3137 20.1765 17.6274 19.8627 17.9804 19.8627C18.3333 19.8627 18.6471 20.1765 18.6471 20.5294C18.6471 20.8824 18.3725 21.1961 17.9804 21.1961Z" fill="#A4ACAD"/>
<path d="M12.7255 24.5686C11.9412 24.5686 11.2745 25.2353 11.2745 26.0196C11.2745 26.8039 11.9412 27.4706 12.7255 27.4706C13.5098 27.4706 14.1765 26.8039 14.1765 26.0196C14.1765 25.2353 13.5098 24.5686 12.7255 24.5686ZM12.7255 26.6862C12.3725 26.6862 12.0588 26.3725 12.0588 26.0196C12.0588 25.6666 12.3725 25.3529 12.7255 25.3529C13.0784 25.3529 13.3922 25.6666 13.3922 26.0196C13.3922 26.4117 13.0784 26.6862 12.7255 26.6862Z" fill="#A4ACAD"/>
</svg>
