<svg width="30" height="30" viewBox="0 0 30 30" fill="none" xmlns="http://www.w3.org/2000/svg">
<g clip-path="url(#clip0_7_994)">
<path d="M28.6652 9.03411C27.289 8.17522 25.9475 8.03881 24.7659 8.63245C24.4586 8.32771 23.8308 7.82704 22.9793 7.7649C22.2194 7.70933 21.4691 8.0115 20.7479 8.66245C20.6769 8.0286 20.3839 7.44034 19.9206 7.00192C19.3712 6.49087 18.6463 6.21062 17.896 6.21915C16.525 6.21915 15.3396 7.25138 15.0536 8.58298L11.7092 6.43026C11.6367 6.38368 11.5554 6.35249 11.4704 6.33863C11.3854 6.32476 11.2984 6.32851 11.2149 6.34965C11.1301 6.37154 11.0508 6.41062 10.9818 6.46445C10.9128 6.51828 10.8556 6.58572 10.8137 6.66258C10.7726 6.73799 10.7338 6.81445 10.6971 6.89197C9.6206 6.49515 8.27144 6.77641 7.47111 7.60966C7.13561 7.95419 6.89495 8.37964 6.77251 8.84468C6.65007 9.30972 6.65002 9.79852 6.77236 10.2636H6.56997C6.05096 8.38549 4.14771 7.39754 4.06663 7.35625C3.98946 7.31691 3.90065 7.30683 3.81663 7.32789C3.73261 7.34894 3.65905 7.3997 3.60956 7.47079C3.56006 7.54187 3.53798 7.62847 3.54738 7.71458C3.55679 7.80069 3.59705 7.88048 3.66072 7.9392C3.69102 7.98808 3.92005 8.43455 3.39889 9.95998C2.09484 9.23171 0.72596 8.99736 0.451156 8.95613C0.418643 8.94959 0.385549 8.94637 0.352385 8.94651C0.261972 8.94806 0.175483 8.98372 0.110247 9.04634C0.0450119 9.10896 0.00584835 9.19391 0.000603913 9.28419C-0.00464052 9.37446 0.0244215 9.46338 0.081967 9.53313C0.139513 9.60289 0.221291 9.64832 0.310916 9.66032C0.313187 9.66032 0.333084 9.66343 0.368458 9.66911C0.390328 9.69934 0.491728 9.8397 0.49854 9.84926C0.695426 10.1276 0.970588 10.7425 1.1621 12.0917C1.30873 13.1233 1.89861 13.9949 2.54436 14.5567C2.07279 14.6596 1.73172 14.944 1.68595 15.3083C1.6622 15.4961 1.65022 15.6852 1.6501 15.8746C1.6501 17.929 3.01712 19.8451 5.49932 21.2699C6.68153 21.9484 8.05262 22.4776 9.54292 22.8418V24.145C9.54292 24.2401 9.58069 24.3313 9.64793 24.3985C9.71516 24.4658 9.80635 24.5035 9.90144 24.5035H19.1708C19.2659 24.5035 19.3571 24.4658 19.4244 24.3985C19.4916 24.3313 19.5294 24.2401 19.5294 24.145V22.8418C21.0197 22.4773 22.3908 21.9484 23.573 21.2698C26.0552 19.8451 27.4222 17.929 27.4222 15.8745C27.4221 15.6852 27.4102 15.4961 27.3864 15.3082C27.3723 15.2031 27.3343 15.1026 27.2752 15.0145C28.4337 14.5895 29.2703 13.609 29.7145 12.6859C30.0208 12.0549 30.0831 11.333 29.8894 10.659C29.6958 9.98489 29.2597 9.40619 28.6652 9.03411ZM17.896 6.93619C18.9895 6.93619 19.843 7.63972 20.0177 8.62451C19.8137 8.62086 19.5845 8.62558 19.3404 8.6444C19.2007 8.3239 18.9545 8.06157 18.6435 7.90187C18.3325 7.74218 17.9758 7.69494 17.6339 7.76817C17.292 7.84141 16.986 8.0306 16.7677 8.30369C16.5494 8.57677 16.4322 8.91695 16.4361 9.26655C16.436 9.33806 16.44 9.40952 16.448 9.48059L15.7138 9.008C15.8115 7.8666 16.7709 6.93619 17.896 6.93619ZM18.5682 8.7516C18.0687 8.8482 17.5899 9.03135 17.1535 9.29278C17.1535 9.28388 17.1529 9.27557 17.1529 9.26625C17.1485 9.09974 17.1965 8.93603 17.2902 8.79832C17.3839 8.66062 17.5186 8.55588 17.6751 8.49896C17.8317 8.44203 18.0022 8.4358 18.1625 8.48114C18.3227 8.52648 18.4647 8.6211 18.5682 8.7516ZM11.4015 7.08485L16.2032 10.1756C16.0733 10.3587 15.9626 10.5547 15.8726 10.7604L12.6639 8.69334C12.5883 8.64418 12.5023 8.61351 12.4126 8.60383C12.323 8.59414 12.2324 8.60571 12.1481 8.63759C12.063 8.66967 11.9866 8.72106 11.9248 8.78771C11.863 8.85436 11.8176 8.93446 11.792 9.02168C11.5783 9.75425 11.771 10.6911 12.3205 11.5919C12.8349 12.4349 13.6346 13.2003 14.598 13.7793C14.4079 14.0078 14.2271 14.2283 14.1447 14.5143H13.9855C12.7171 13.5969 11.7538 12.3295 11.2688 10.9325C10.7875 9.5456 10.8353 8.18329 11.4015 7.08485ZM15.1192 12.7853C15.154 12.8074 15.1914 12.8249 15.2306 12.8376C15.1711 12.9628 15.1044 13.0845 15.0309 13.2021C13.1735 12.1146 12.2748 10.4682 12.4408 9.40213L15.6436 11.4655C15.6339 11.5088 15.6247 11.5525 15.6163 11.597C15.5944 11.7125 15.5709 11.8218 15.5456 11.925C15.4421 11.8868 15.3286 11.8853 15.2241 11.921C15.1197 11.9566 15.0306 12.027 14.972 12.1205C14.9045 12.2285 14.882 12.3587 14.9096 12.4831C14.9371 12.6075 15.0124 12.716 15.1192 12.7854V12.7853ZM10.9056 11.9288C11.3767 12.9094 12.036 13.7879 12.846 14.5142H10.9056V11.9288ZM7.98839 8.10633C8.58633 7.48382 9.6292 7.26722 10.4392 7.5609C10.3856 7.73877 10.342 7.91951 10.3086 8.10227C10.112 8.03639 9.90593 8.00303 9.69858 8.00349C9.22392 8.00624 8.76973 8.19714 8.43563 8.53431C8.10153 8.87148 7.91479 9.32739 7.91638 9.80206C7.91707 9.95792 7.93775 10.113 7.97793 10.2636H7.52381C7.38702 9.89725 7.35808 9.49934 7.44041 9.11701C7.52275 8.73467 7.71291 8.38394 7.98839 8.10633ZM10.3439 10.2634H8.73548C8.66961 10.1184 8.63485 9.96112 8.63342 9.80182C8.63157 9.51725 8.74268 9.24356 8.94237 9.04081C9.14205 8.83805 9.41401 8.72278 9.69858 8.72029C9.88214 8.71837 10.0634 8.76086 10.227 8.84416C10.2094 9.32027 10.2486 9.79678 10.3439 10.2636V10.2634ZM6.69061 10.9804H10.1885V14.5141H5.90522C5.94266 14.2147 5.9525 13.9124 5.93462 13.6112C6.49259 12.7135 6.74565 11.8319 6.69061 10.9806V10.9804ZM4.45161 8.47136C4.97744 8.88778 5.64249 9.56824 5.88568 10.4774C6.05646 11.116 5.99599 11.7906 5.70899 12.4911C5.5831 12.1378 5.40825 11.8039 5.18956 11.4992C4.86596 11.0554 4.47125 10.6681 4.02139 10.353C4.28938 9.60278 4.43369 8.97209 4.45161 8.47136ZM1.87208 11.9908C1.74576 11.1019 1.56704 10.399 1.3389 9.89181C2.32638 10.1758 3.78579 10.7682 4.60619 11.9164C5.12867 12.6477 5.32096 13.5207 5.18161 14.5144H4.93448C4.49768 12.1145 3.13783 11.4343 3.07771 11.4055C3.03524 11.3849 2.98911 11.3728 2.94197 11.3701C2.89484 11.3674 2.84763 11.374 2.80305 11.3895C2.75848 11.4051 2.71742 11.4293 2.68222 11.4608C2.64703 11.4922 2.6184 11.5304 2.59797 11.5729C2.57755 11.6155 2.56574 11.6617 2.56321 11.7088C2.56068 11.756 2.56749 11.8032 2.58324 11.8477C2.599 11.8922 2.62339 11.9331 2.65502 11.9682C2.68664 12.0032 2.72488 12.0317 2.76754 12.0519C2.77865 12.0573 3.81375 12.5756 4.20525 14.5144H3.91312C3.31953 14.4479 2.0762 13.4259 1.8722 11.9907L1.87208 11.9908ZM18.8123 23.7865H10.2603V23.0026C13.0833 23.5637 15.9892 23.5637 18.8123 23.0026V23.7865ZM26.6821 16.2875H8.72681C8.63173 16.2875 8.54054 16.3253 8.4733 16.3925C8.40607 16.4598 8.3683 16.551 8.3683 16.646C8.3683 16.7411 8.40607 16.8323 8.4733 16.8995C8.54054 16.9668 8.63173 17.0046 8.72681 17.0046H26.5371C26.1288 18.3674 24.9852 19.6325 23.2161 20.6479C20.9037 21.9753 17.8209 22.7064 14.5363 22.7064C11.2518 22.7064 8.16926 21.9754 5.85658 20.648C4.08748 19.6325 2.94381 18.3675 2.53552 17.0046H6.21719C6.31228 17.0046 6.40347 16.9668 6.4707 16.8996C6.53794 16.8324 6.57571 16.7412 6.57571 16.6461C6.57571 16.551 6.53794 16.4598 6.4707 16.3926C6.40347 16.3253 6.31228 16.2876 6.21719 16.2876H2.3905C2.35771 15.9941 2.35971 15.6977 2.39647 15.4047C2.42575 15.3527 2.6209 15.2314 2.94022 15.2314H26.1323C26.4516 15.2314 26.6466 15.3527 26.676 15.4047C26.6955 15.5605 26.7052 15.7174 26.7053 15.8745C26.705 16.0125 26.6973 16.1504 26.6821 16.2875ZM16.1257 14.5143C16.695 14.2981 17.3349 14.0992 18.0127 13.9174C18.0247 13.9294 18.0366 13.9409 18.049 13.9521C18.3086 14.1674 18.5895 14.3558 18.8873 14.5143H16.1257ZM29.0682 12.3751C28.5822 13.3853 27.554 14.4774 26.1255 14.5143H20.6805C20.0565 14.3146 19.4597 14.0385 18.9034 13.6924C20.0645 13.4165 21.2875 13.1866 22.4207 13.0007C22.4368 13.0212 22.4535 13.0412 22.4718 13.0605C22.9231 13.5315 23.8207 14.3057 24.8428 14.3056C24.8726 14.3056 24.9032 14.3049 24.9334 14.3035C24.9808 14.3019 25.0274 14.2909 25.0705 14.2712C25.1136 14.2514 25.1524 14.2233 25.1846 14.1885C25.2168 14.1537 25.2417 14.1128 25.258 14.0683C25.2742 14.0237 25.2815 13.9764 25.2794 13.929C25.2772 13.8817 25.2657 13.8352 25.2455 13.7923C25.2253 13.7494 25.1967 13.711 25.1615 13.6792C25.1264 13.6474 25.0852 13.6229 25.0405 13.6071C24.9958 13.5914 24.9484 13.5846 24.901 13.5873C24.2956 13.6136 23.694 13.2035 23.302 12.8622C25.3557 12.5515 26.9332 12.4007 26.9709 12.3971C27.0655 12.3883 27.1528 12.3422 27.2135 12.269C27.2742 12.1957 27.3033 12.1014 27.2944 12.0068C27.2856 11.9121 27.2395 11.8248 27.1663 11.7641C27.0931 11.7035 26.9987 11.6743 26.9041 11.6832C26.7492 11.6977 25.1682 11.849 23.1318 12.1579C23.4022 11.6674 23.9368 10.9822 24.8612 10.8297C24.9546 10.8138 25.0379 10.7616 25.0929 10.6844C25.1479 10.6073 25.1701 10.5115 25.1547 10.418C25.1393 10.3245 25.0875 10.2409 25.0106 10.1855C24.9338 10.1301 24.8381 10.1074 24.7445 10.1223C23.2334 10.3714 22.5413 11.6608 22.3139 12.2036C22.302 12.2324 22.2918 12.2619 22.2834 12.292C21.0992 12.4866 19.8164 12.7301 18.598 13.0264C18.7989 12.4544 19.2394 11.5864 20.1183 11.2885C20.1634 11.2738 20.205 11.2502 20.2409 11.2192C20.2767 11.1883 20.3061 11.1505 20.3273 11.1081C20.3484 11.0658 20.361 11.0196 20.3642 10.9723C20.3675 10.9251 20.3613 10.8776 20.3461 10.8328C20.3309 10.7879 20.3069 10.7465 20.2756 10.7109C20.2443 10.6754 20.2063 10.6464 20.1637 10.6256C20.1211 10.6049 20.0748 10.5927 20.0275 10.59C19.9802 10.5872 19.9328 10.5938 19.8881 10.6095C18.4973 11.0809 17.9705 12.546 17.8087 13.1539C17.8019 13.1801 17.7964 13.2067 17.7922 13.2334C16.8619 13.4855 15.995 13.7708 15.2707 14.0909C15.6192 13.6617 16.0773 13.0104 16.3204 11.7313C16.5541 10.5028 17.3566 9.73705 18.7055 9.45549C19.3942 9.32313 20.1001 9.30611 20.7943 9.40512C20.8501 9.41488 20.9074 9.41128 20.9616 9.39459C21.0157 9.37791 21.0651 9.34863 21.1057 9.30915C21.7149 8.7176 22.3258 8.43873 22.9206 8.47984C23.805 8.54115 24.4018 9.29493 24.4069 9.30157C24.4607 9.37165 24.5384 9.41943 24.6253 9.43573C24.7121 9.45203 24.8018 9.4357 24.8774 9.38988C25.8877 8.77688 27.0344 8.8619 28.2853 9.64264C28.7298 9.92133 29.0556 10.3545 29.2002 10.8588C29.3447 11.3631 29.2978 11.9031 29.0684 12.375L29.0682 12.3751Z" fill="#A4ACAD"/>
<path d="M14.2959 10.8576C14.2424 10.8231 14.1826 10.7996 14.1199 10.7884C14.0572 10.7772 13.993 10.7785 13.9308 10.7924C13.8687 10.8062 13.8099 10.8322 13.7579 10.8689C13.7059 10.9056 13.6617 10.9523 13.6278 11.0062C13.5603 11.1141 13.5378 11.2443 13.5653 11.3686C13.5928 11.4929 13.668 11.6015 13.7748 11.6709C13.8521 11.721 13.9422 11.7478 14.0344 11.7478C14.0697 11.7478 14.1049 11.7439 14.1393 11.7363C14.2016 11.7227 14.2606 11.6967 14.3127 11.66C14.3648 11.6233 14.4091 11.5765 14.4429 11.5224C14.5104 11.4145 14.5329 11.2843 14.5054 11.1599C14.4779 11.0356 14.4027 10.927 14.2959 10.8576Z" fill="#A4ACAD"/>
<path d="M7.74862 19.9879C7.70567 20.0727 7.69817 20.1711 7.72778 20.2614C7.75738 20.3518 7.82166 20.4267 7.90648 20.4696C9.23863 21.143 10.7048 21.5092 12.1972 21.5411H12.2065C12.3016 21.5423 12.3932 21.5056 12.4613 21.4392C12.5294 21.3728 12.5683 21.2821 12.5695 21.187C12.5707 21.0919 12.534 21.0003 12.4676 20.9322C12.4012 20.8641 12.3105 20.8252 12.2154 20.824C10.8295 20.7946 9.46777 20.4549 8.23046 19.8297C8.18845 19.8085 8.14265 19.7957 8.09569 19.7921C8.04873 19.7886 8.00153 19.7943 7.95679 19.809C7.91204 19.8237 7.87063 19.847 7.83491 19.8777C7.79919 19.9084 7.76987 19.9458 7.74862 19.9879Z" fill="#A4ACAD"/>
<path d="M6.96267 19.0589C6.84717 18.9761 6.73143 18.8893 6.61861 18.801C6.54374 18.7423 6.44865 18.7158 6.35424 18.7273C6.25984 18.7388 6.17386 18.7873 6.11523 18.8622C6.05659 18.9371 6.0301 19.0322 6.04158 19.1266C6.05306 19.221 6.10157 19.3069 6.17644 19.3656C6.2972 19.4601 6.42107 19.5529 6.54476 19.6416C6.58299 19.6695 6.62638 19.6896 6.67241 19.7007C6.71844 19.7117 6.7662 19.7135 6.81294 19.706C6.85968 19.6985 6.90447 19.6819 6.94473 19.657C6.98499 19.6321 7.01992 19.5994 7.0475 19.561C7.07508 19.5225 7.09478 19.4789 7.10544 19.4328C7.1161 19.3867 7.11753 19.3389 7.10963 19.2922C7.10173 19.2456 7.08467 19.2009 7.05942 19.1609C7.03418 19.1208 7.00126 19.0862 6.96255 19.0589H6.96267Z" fill="#A4ACAD"/>
</g>
<defs>
<clipPath id="clip0_7_994">
<rect width="30" height="30" fill="white"/>
</clipPath>
</defs>
</svg>
