<svg width="30" height="30" viewBox="0 0 30 30" fill="none" xmlns="http://www.w3.org/2000/svg">
<g clip-path="url(#clip0_7_963)">
<path d="M29.2101 14.303L26.8794 11.5907C26.5203 11.1729 26.1306 10.7718 25.7212 10.3984C25.5407 10.234 25.2609 10.2469 25.0964 10.4273C24.9319 10.6078 24.9448 10.8876 25.1253 11.0521C25.4635 11.3605 25.786 11.6899 26.0884 12.0316C26.1698 14.1606 25.7457 16.2891 24.8572 18.2237L21.738 16.8179C21.6502 16.7784 21.5619 16.7398 21.4734 16.7018C22.0136 13.9158 21.717 11.0152 20.6337 8.40018C21.7078 8.76583 24.2797 10.4908 25.2254 11.1309C25.3014 11.1823 25.3875 11.207 25.4729 11.207C25.6147 11.207 25.754 11.1389 25.8395 11.0126C25.9764 10.8103 25.9234 10.5353 25.7212 10.3984C23.8129 9.10683 20.0542 7.09885 17.763 6.88792C17.3884 6.38836 16.7916 6.06458 16.1205 6.06458H12.7842C12.0415 6.06458 11.3898 6.46118 11.0295 7.05374C7.95898 7.61569 5.15725 9.2207 3.12054 11.5907L0.789833 14.303C-0.105632 15.3451 -0.254581 16.8497 0.419229 18.0472C0.821852 18.7627 1.47308 19.2977 2.25303 19.5539C2.32066 19.5762 2.38883 19.5955 2.45729 19.6132C2.35268 20.5799 2.62912 21.5458 3.24455 22.318C3.95262 23.2065 5.01036 23.7162 6.14653 23.7162H11.863C12.1402 23.8561 12.4531 23.9354 12.7841 23.9354H16.1205C16.4516 23.9354 16.7644 23.8561 17.0416 23.7162H23.7944C24.9306 23.7162 25.9883 23.2065 26.6964 22.318C27.3087 21.5497 27.585 20.5898 27.4847 19.628C27.5727 19.607 27.6602 19.5824 27.7469 19.5539C28.5268 19.2977 29.1781 18.7627 29.5807 18.0472C30.2546 16.8498 30.1056 15.345 29.2101 14.303ZM19.5217 8.07675C20.7534 10.6487 21.1436 13.5669 20.6355 16.3709C19.8351 16.0806 19.0112 15.855 18.1724 15.6965V8.11649C18.1724 8.01701 18.165 7.91931 18.1512 7.82355C18.6129 7.88346 19.0704 7.96737 19.5217 8.07675ZM10.7322 8.11649V12.3842C9.87987 11.1481 8.83605 10.0449 7.64858 9.12847C8.621 8.62891 9.6581 8.25341 10.7348 8.01554C10.7332 8.04897 10.7322 8.08264 10.7322 8.11649ZM1.19004 17.6135C0.698022 16.7391 0.806816 15.6404 1.4607 14.8794L2.71709 13.4174C3.21206 13.6872 3.69541 13.9907 4.15747 14.3234C4.23566 14.3796 5.48062 15.4921 5.57007 15.4921C5.70752 15.4921 5.91361 15.12 6 15C6.1427 14.8018 6.37691 14.993 6.17872 14.8503C5.73842 14.5334 3.77537 12.9961 3.30587 12.7322L3.79129 12.1673C4.66187 11.1542 5.68217 10.291 6.80731 9.6015C8.42086 10.7758 9.77232 12.3118 10.7322 14.0647V15.9436C9.88571 16.1667 9.05617 16.46 8.26189 16.818L7.99595 16.9379C7.45965 16.1878 6.8497 15.4868 6.17872 14.8503C6.00153 14.6822 5.72161 14.6896 5.5535 14.8669C5.38545 15.0441 5.39282 15.324 5.57007 15.4921C6.1572 16.049 6.69368 16.6591 7.1716 17.3094L4.25972 18.6217C3.12184 19.1347 1.80217 18.7012 1.19004 17.6135ZM3.93629 21.7668C3.46968 21.1812 3.25876 20.4496 3.33536 19.7166C3.7756 19.7087 4.21343 19.6128 4.62313 19.4281L8.62542 17.6243C9.30459 17.3181 10.0112 17.0628 10.7322 16.8608V20.6488H10.2895C10.0452 20.6488 9.8472 20.8467 9.8472 21.091C9.8472 21.3353 10.0452 21.5333 10.2895 21.5333H10.7322V21.8834C10.7322 22.2253 10.8168 22.5478 10.9653 22.8316H6.14653C5.28119 22.8317 4.47559 22.4436 3.93629 21.7668ZM26.0047 21.7668C25.4654 22.4436 24.6598 22.8317 23.7945 22.8317H17.9394C18.0722 22.5778 18.1539 22.2932 18.1696 21.9912C18.1761 21.9915 18.1825 21.9923 18.1891 21.9923H18.6808C18.925 21.9923 19.123 21.7943 19.123 21.55C19.123 21.3057 18.925 21.1078 18.6808 21.1078H18.1891C18.1835 21.1078 18.178 21.1084 18.1725 21.1086V18.4422C18.1725 18.198 17.9745 18 17.7303 18C17.486 18 17.288 18.198 17.288 18.4422V21.8835C17.288 22.5273 16.7643 23.0509 16.1206 23.0509H12.7843C12.1405 23.0509 11.6168 22.5273 11.6168 21.8835V8.11649C11.6168 7.47275 12.1405 6.94907 12.7843 6.94907H16.1206C16.7643 6.94907 17.288 7.47275 17.288 8.11649V18.3336C17.288 18.5779 17.486 18.7759 17.7303 18.7759C17.9745 18.7759 18.1725 18.5779 18.1725 18.3336V16.5972C19.2758 16.8184 20.3507 17.1629 21.3747 17.6244L25.377 19.4282C25.7685 19.6046 26.1854 19.7 26.6057 19.7151C26.6826 20.4486 26.4717 21.1808 26.0047 21.7668ZM28.8099 17.6135C28.1979 18.7012 26.8784 19.1348 25.7403 18.6218L25.6628 18.5869C26.46 16.8489 26.9054 14.9645 26.9728 13.0565L28.5393 14.8794C29.1932 15.6403 29.3019 16.7391 28.8099 17.6135Z" fill="#A4ACAD"/>
<path d="M19.9919 18.0342H19.5657C19.3215 18.0342 19.1235 18.2322 19.1235 18.4765C19.1235 18.7208 19.3215 18.9187 19.5657 18.9187H19.9919C20.2361 18.9187 20.4341 18.7208 20.4341 18.4765C20.4341 18.2322 20.2361 18.0342 19.9919 18.0342Z" fill="#A4ACAD"/>
<path d="M22.3847 19.9034H21.6636C21.4193 19.9034 21.2213 20.1014 21.2213 20.3457C21.2213 20.59 21.4193 20.7879 21.6636 20.7879H22.3847C22.6289 20.7879 22.8269 20.59 22.8269 20.3457C22.8269 20.1014 22.6289 19.9034 22.3847 19.9034Z" fill="#A4ACAD"/>
<path d="M10.3712 19.2759C10.3712 19.0316 10.1732 18.8336 9.92893 18.8336H9.14226C8.89802 18.8336 8.70001 19.0316 8.70001 19.2759C8.70001 19.5202 8.89802 19.7181 9.14226 19.7181H9.92893C10.1732 19.7181 10.3712 19.5202 10.3712 19.2759Z" fill="#A4ACAD"/>
<path d="M7.20834 20.6488H5.79886C5.55462 20.6488 5.35661 20.8468 5.35661 21.0911C5.35661 21.3354 5.55462 21.5333 5.79886 21.5333H7.20834C7.45258 21.5333 7.65059 21.3354 7.65059 21.0911C7.65059 20.8468 7.45258 20.6488 7.20834 20.6488Z" fill="#A4ACAD"/>
</g>
<defs>
<clipPath id="clip0_7_963">
<rect width="30" height="30" fill="white"/>
</clipPath>
</defs>
</svg>
